<svg xmlns="http://www.w3.org/2000/svg" viewBox="0 0 254.74 80.09"><defs><style>.cls-1{fill:#0054a4;}.cls-1,.cls-2{fill-rule:evenodd;}.cls-2{fill:#0079c1;}.cls-3{fill:#00833e;}.cls-4{fill:#001689;}.cls-5{fill:#80bc00;}.cls-6{fill:#00aeef;}.cls-7{fill:#005cb9;}</style></defs><title>ABL-Logo</title><g id="Layer_2" data-name="Layer 2"><g id="Layer_1-2" data-name="Layer 1"><path class="cls-1" d="M204.73,31a2.71,2.71,0,0,0-1.67,2.56c0,1.6,1.12,2.72,3.22,2.76a6.16,6.16,0,0,0,4.33-2V29.48A18.05,18.05,0,0,0,204.73,31Zm.54,9.59c-4.21,0-7.26-2.85-7.27-6.57,0-4.06,3.06-7.57,12.61-8.07,0-1.75-.33-2.8-1-3.42a4.41,4.41,0,0,0-3.29-1,12.87,12.87,0,0,0-6.54,2.26l-.64.43-1-4.51.28-.19A15.38,15.38,0,0,1,206.74,17c2.88,0,5.08.6,6.56,2s2.14,3.58,2.14,6.43v9.16c0,.87.1,1.27.2,1.34s.45.23,1.36.22h.55l-.3,4.19-.44,0c-.35,0-.67,0-1,0-2.53,0-4.1-1-4.8-2.48a7.89,7.89,0,0,1-5.75,2.63Zm-29.53-.69h-.52V26.11c0-1.77-.34-2.85-.92-3.46a3.84,3.84,0,0,0-2.94-.92,7.92,7.92,0,0,0-5,2V39.93h-4.83V17.72l4.83-.77v2.62A10.18,10.18,0,0,1,172.7,17a7.16,7.16,0,0,1,5.4,2.1,8.13,8.13,0,0,1,2,5.72V39.93ZM146,31a2.73,2.73,0,0,0-1.67,2.56c0,1.6,1.12,2.72,3.22,2.76a6.16,6.16,0,0,0,4.33-2V29.48A18.05,18.05,0,0,0,146,31Zm.54,9.59c-4.2,0-7.26-2.85-7.27-6.57,0-4.06,3.06-7.57,12.61-8.07,0-1.75-.33-2.8-.94-3.42a4.44,4.44,0,0,0-3.29-1,12.91,12.91,0,0,0-6.55,2.26l-.64.43-1-4.51.28-.19A15.39,15.39,0,0,1,148.05,17c2.87,0,5.07.6,6.55,2s2.14,3.58,2.14,6.43v9.16c0,.87.1,1.27.2,1.34s.45.23,1.36.22h.56l-.31,4.19-.44,0c-.34,0-.67,0-1,0-2.53,0-4.09-1-4.8-2.48a7.89,7.89,0,0,1-5.75,2.63Zm-14.65-.69h-.52V10.11l4.83-.77V39.93Zm59.61.69a14,14,0,0,0,4.95-1l.4-.15-.08-.43-.33-1.67-.24-1.15-.09-.39-.15-.71a5.15,5.15,0,0,1-.58.2,17.77,17.77,0,0,1-3.65.76c-1.64-.08-2.17-.63-2.25-2.34l.31-11.59h6.6l.18-4.45H190l.14-4.85h-4.69l-.1,4.7-3.5,1.06-.19,3.28,3.53.23-.31,11.32v.42A6.83,6.83,0,0,0,186.6,39,6.86,6.86,0,0,0,191.53,40.62Zm-68.33,0a13.94,13.94,0,0,0,4.94-1l.4-.15-.08-.43-.33-1.67-.24-1.15-.08-.39-.15-.71s-.24.1-.58.2a17.93,17.93,0,0,1-3.65.76c-1.65-.08-2.18-.63-2.26-2.34l.31-11.59h6.6l.18-4.45h-6.61l.14-4.85H117.1l-.1,4.7-3.5,1.06-.19,3.28,3.53.23-.31,11.32v.42a6.83,6.83,0,0,0,1.74,5.1A6.87,6.87,0,0,0,123.2,40.62ZM97.44,27.76h8.45l-4.21-11.63Zm17.71,11.47.26.7h-5.13l-2.73-7.58H95.77l-2.72,7.58H87.86L99.11,10h5.2Z"/><path class="cls-2" d="M234.33,60.78l9.72-.08c-.12-2.87-1.28-4.45-4.28-4.51A5.55,5.55,0,0,0,234.33,60.78Zm-2,11.37a11.78,11.78,0,0,1-3.11-8.3,12.54,12.54,0,0,1,3.14-8.67,10.45,10.45,0,0,1,7.82-3.35,8.49,8.49,0,0,1,6.34,2.4,9,9,0,0,1,2.26,6.38,13.25,13.25,0,0,1-.48,3.52l-.11.38h-.39l-13.68.08c.28,3.74,2.75,6.24,6.43,6.26a11.28,11.28,0,0,0,6-1.66l.64-.44.92,4.63-.31.19a14.45,14.45,0,0,1-7.38,1.84A11.08,11.08,0,0,1,232.29,72.15Zm-9.53,2.56h-.52V60.89c0-1.77-.34-2.85-.92-3.46a3.82,3.82,0,0,0-2.95-.91,8,8,0,0,0-5,2V74.71h-4.83V52.5l4.83-.77v2.62a10.16,10.16,0,0,1,6.36-2.52,7.12,7.12,0,0,1,5.41,2.09,8.14,8.14,0,0,1,1.95,5.72V74.71Zm-21.71,0h-.53V52.5l4.83-.77v23Zm-20.18,0h-.51L180,44.8h5L185.31,70H198.4v4.74Zm-25.07,0h-.52L155,44.88l4.83-.77.32,30.6ZM138.48,60.78l9.7-.08c-.11-2.87-1.27-4.46-4.27-4.51A5.53,5.53,0,0,0,138.48,60.78Zm-2,11.37a11.77,11.77,0,0,1-3.11-8.3,12.54,12.54,0,0,1,3.14-8.67,10.45,10.45,0,0,1,7.82-3.35,8.49,8.49,0,0,1,6.34,2.4,9,9,0,0,1,2.26,6.38,13.31,13.31,0,0,1-.48,3.52l-.11.38h-.39l-13.69.08c.29,3.74,2.76,6.24,6.44,6.26a11.25,11.25,0,0,0,6-1.66l.65-.44.92,4.63-.31.19a14.47,14.47,0,0,1-7.39,1.84A11,11,0,0,1,136.43,72.15Zm-15.68-22.7h-5.43v8h4.83c4-.05,5.88-1.67,5.9-4.14S124.43,49.51,120.75,49.45Zm-.27,12.61h-5.16v8h5.76c4.22-.07,5.86-1.34,5.9-4A3.27,3.27,0,0,0,125.25,63,9.92,9.92,0,0,0,120.48,62.06ZM110.35,74.71V44.8h10.08c3.56,0,6.21.8,8,2.26A7.34,7.34,0,0,1,131,53a6.79,6.79,0,0,1-4,6.25,7.07,7.07,0,0,1,4.9,6.78,7.78,7.78,0,0,1-2.75,6.32c-1.89,1.54-4.69,2.37-8.48,2.37Zm61.84.7a13.94,13.94,0,0,0,4.94-1l.41-.16-.09-.43-.33-1.67-.23-1.14-.09-.39-.15-.72s-.24.1-.58.21a18.14,18.14,0,0,1-3.65.75c-1.65-.07-2.18-.62-2.26-2.34L170.47,57h6.6l.18-4.46h-6.61l.14-4.85h-4.69l-.1,4.71-3.49,1-.19,3.28,3.52.24-.31,11.32v.42a6.77,6.77,0,0,0,1.73,5.09A6.85,6.85,0,0,0,172.19,75.41Zm27.64-28.06a3,3,0,1,1,3,3A3,3,0,0,1,199.83,47.35Z"/><polygon class="cls-3" points="31.36 41.01 30.86 44.52 25.29 44.03 26.1 40.16 31.36 41.01"/><polygon class="cls-4" points="61.79 50.98 65.06 53.4 62.31 57.69 58.81 54.8 61.79 50.98"/><polygon class="cls-4" points="69.69 27.68 68.86 31.67 64.39 31.07 65.53 26.68 69.69 27.68"/><polygon class="cls-5" points="72.37 44.43 78.27 47.87 81.18 42.14 75.32 39.32 72.37 44.43"/><polygon class="cls-5" points="19.48 6.44 19.32 18.19 29.36 19.18 29.52 5.96 19.48 6.44"/><polygon class="cls-6" points="57.17 19.18 56.16 28.08 62.8 28.5 63.54 19.98 57.17 19.18"/><polygon class="cls-4" points="38.31 0.68 38.12 10.81 47.74 12.23 49.08 0.92 38.31 0.68"/><polygon class="cls-3" points="18.53 52.49 16.26 56.72 20 59.4 23.01 54.93 18.53 52.49"/><polygon class="cls-7" points="12.65 60.55 10.43 68.27 17.68 70.44 19.64 62.81 12.65 60.55"/><polygon class="cls-6" points="53.61 65 55.34 74.54 64.28 73.08 62.08 63.75 53.61 65"/><polygon class="cls-5" points="31.32 26.1 31.17 31.73 24.2 31.99 24.04 26.23 31.32 26.1"/><polygon class="cls-7" points="27.08 15.6 19.39 20.96 24.95 27.46 31.58 21.21 27.08 15.6"/><polygon class="cls-6" points="37.72 68.23 31.33 68.79 29.82 62.29 36.91 61.55 37.72 68.23"/><path class="cls-4" d="M0,43.2l3.74-7s6.58,3.77,6.63,3.81S6.75,47.3,6.75,47.3Z"/><polygon class="cls-3" points="51.81 56.03 66.61 53.16 65.2 49.09 51.22 52.15 51.81 56.03"/><polygon class="cls-3" points="11 12.93 9.58 21.34 17.65 23.38 20.43 13.98 11 12.93"/><polygon class="cls-4" points="66.63 27.4 69.49 38.5 81.59 34.94 78.45 24.48 66.63 27.4"/><polygon class="cls-7" points="52.22 4.11 50.18 11.11 56.59 13.9 59.64 6.3 52.22 4.11"/><polygon class="cls-5" points="20.11 73.08 27.4 77.11 31.28 70.37 23.87 66.76 20.11 73.08"/><polygon class="cls-7" points="50.61 23.36 49.59 28.75 44.15 28.08 44.95 22.54 50.61 23.36"/><polygon class="cls-5" points="45.13 13.62 45.13 19.05 33.33 19.5 33.88 13.46 45.13 13.62"/><path class="cls-5" d="M60,62.5l4.82-4.44,6.38,7.42c.06.06-4.74,4.8-4.74,4.8Z"/><polygon class="cls-6" points="33.19 10.77 39.18 7.72 34.96 0 29.39 3.18 33.19 10.77"/><polygon class="cls-4" points="45.73 64.48 43.65 72.94 55.43 77.64 59.17 68.59 45.73 64.48"/><polygon class="cls-7" points="5.1 25.82 2.13 34.11 9.92 37.01 12.61 28.79 5.1 25.82"/><polygon class="cls-6" points="69.19 16.59 66.37 24.44 73.12 27.01 75.52 19.13 69.19 16.59"/><polygon class="cls-4" points="27.08 29.57 22.07 42.47 16.19 40.89 21.06 27.62 27.08 29.57"/><polygon class="cls-6" points="20.14 25.5 20.15 33.4 10.89 34.06 11.32 25.26 20.14 25.5"/><path class="cls-6" d="M28.07,47.83l-9.62.83s-.52-8.76-.53-8.84,9.86-1.13,9.86-1.13Z"/><path class="cls-7" d="M33.31,78,34.8,66.15l11.4,1.76c.1,0-1.17,12.18-1.17,12.18Z"/><polygon class="cls-3" points="71.06 49.5 67.08 56.06 74.14 60.9 78.59 53.5 71.06 49.5"/><polygon class="cls-5" points="3.84 51.89 8.27 61.33 17.52 56.55 12.98 47.71 3.84 51.89"/><polygon class="cls-6" points="8.77 43.26 14 42.31 13.7 35.6 8.41 35.83 8.77 43.26"/><polygon class="cls-3" points="11.31 45.63 11.74 51.45 18.72 51.5 19.25 45.01 11.31 45.63"/><polygon class="cls-5" points="65.29 8.65 55.49 18.56 60.72 24.04 70.17 14.16 65.29 8.65"/><polygon class="cls-7" points="59.17 34.01 56.44 48.32 75.04 51.99 76.71 37.67 59.17 34.01"/><polygon class="cls-5" points="36.49 21.67 41.35 23.17 40.55 26.72 35.53 25.34 36.49 21.67"/><polygon class="cls-4" points="34.91 53.3 28.92 56.1 23.11 50.47 29.37 46.04 34.91 53.3"/><polygon class="cls-4" points="37.22 21.93 33.1 25.23 29.12 20.95 33.88 17.49 37.22 21.93"/><path class="cls-6" d="M55.26,39.23,52,30.79l7.26-2.6c.06,0,3.58,8.59,3.58,8.59Z"/><polygon class="cls-7" points="40.23 64.59 41.36 50.42 25.4 50.05 25.61 63.57 40.23 64.59"/><polygon class="cls-7" points="18.73 63.04 21.78 69.08 27.12 66.48 23.98 60.63 18.73 63.04"/><polygon class="cls-7" points="58.71 60.06 55.56 63.58 51.95 60.88 55.61 57.1 58.71 60.06"/><polygon class="cls-6" points="45.22 66.67 53.99 63.97 49.85 56.1 41.63 60.04 45.22 66.67"/><polygon class="cls-4" points="57.05 11.46 42.38 10.48 42.86 24.47 57.65 24.54 57.05 11.46"/><path class="cls-2" d="M251.11,54.66V51.94h1.42a1.06,1.06,0,0,1,.42.11.72.72,0,0,1,.26.26.87.87,0,0,1,.1.39.72.72,0,0,1-.2.5.81.81,0,0,1-.53.26,1.09,1.09,0,0,1,.19.1l.18.21.2.33.32.55h-.68l-.23-.44a1.77,1.77,0,0,0-.38-.56.58.58,0,0,0-.38-.12h-.14v1.12Zm1.08-3.43a2.08,2.08,0,0,0-1,.27,1.89,1.89,0,0,0-.76.75,2.06,2.06,0,0,0-.28,1,2.11,2.11,0,0,0,.27,1,2.05,2.05,0,0,0,.76.76,2.11,2.11,0,0,0,1,.27,2,2,0,0,0,1.78-1,2.11,2.11,0,0,0,.27-1,2.06,2.06,0,0,0-.28-1,1.83,1.83,0,0,0-.76-.75A2,2,0,0,0,252.19,51.23Zm0-.5a2.64,2.64,0,0,1,1.27.33,2.39,2.39,0,0,1,1,.94,2.59,2.59,0,0,1,.34,1.29,2.56,2.56,0,0,1-.34,1.28,2.43,2.43,0,0,1-.94.94,2.56,2.56,0,0,1-1.28.34,2.52,2.52,0,0,1-1.27-.34,2.45,2.45,0,0,1-.95-.94,2.66,2.66,0,0,1-.34-1.28A2.61,2.61,0,0,1,250,52a2.39,2.39,0,0,1,.95-.94A2.58,2.58,0,0,1,252.18,50.73Zm-.52,2.39h.22a2.86,2.86,0,0,0,.59,0,.43.43,0,0,0,.19-.13.37.37,0,0,0,.06-.21.36.36,0,0,0-.06-.2.43.43,0,0,0-.19-.13,2.94,2.94,0,0,0-.59,0h-.22Z"/></g></g></svg>